<?xml version="1.0" encoding="UTF-8"?>
<svg width="100pt" height="100pt" version="1.1" viewBox="0 0 100 100" xmlns="http://www.w3.org/2000/svg">
 <g fill="#fff">
  <path d="m5.3984 31.992-5.3984-6.9531c24.551-25.168 70.684-28.453 100-0.11719l-5.4805 7.0703c-29.805-23.695-59.293-23.711-89.121 0z"/>
  <path d="m85.316 43.844-5.7344 7.3945c-16.379-17.898-43.828-16.969-59.227 0.023438l-5.7383-7.3867c18.031-19.984 51.758-20.656 70.699-0.03125z"/>
  <path d="m34.617 69.633-5.125-6.5742c8.8438-13.516 30.438-14.883 40.977-0.085938l-5.1406 6.6406c-4.0898-4.8984-9.0938-7.7227-15.383-7.707-6.2188 0.007812-11.211 2.7109-15.328 7.7266z"/>
  <path d="m49.902 95.102c-3.8203-0.046874-7.2383-2.3828-8.6719-5.9258-1.4375-3.5391-0.60547-7.5977 2.1055-10.289 2.7109-2.6914 6.7734-3.4922 10.305-2.0352 3.5312 1.4609 5.8438 4.8945 5.8633 8.7188 0.035156 5.3008-4.2422 9.5469-9.6016 9.5312z"/>
 </g>
</svg>
